<svg width="104" height="104" viewBox="0 0 104 104" fill="none" xmlns="http://www.w3.org/2000/svg">
<g filter="url(#filter0_d_397_12672)">
<circle cx="52" cy="46" r="36" fill="white"/>
</g>
<path opacity="0.4" d="M66.1445 43.8275C66.1445 51.9775 60.2278 59.6108 52.1445 61.8442C51.5945 61.9942 50.9944 61.9942 50.4444 61.8442C42.3611 59.6108 36.4445 51.9775 36.4445 43.8275V36.5109C36.4445 35.1442 37.4778 33.5942 38.7611 33.0775L48.0444 29.2775C50.1278 28.4275 52.4778 28.4275 54.5611 29.2775L63.8445 33.0775C65.1111 33.5942 66.1612 35.1442 66.1612 36.5109L66.1445 43.8275Z" fill="#00DEA3"/>
<path d="M55.4611 42.7942C55.4611 40.4942 53.5945 38.6275 51.2945 38.6275C48.9945 38.6275 47.1278 40.4942 47.1278 42.7942C47.1278 44.6608 48.3611 46.2108 50.0445 46.7442V51.1275C50.0445 51.8108 50.6111 52.3775 51.2945 52.3775C51.9778 52.3775 52.5445 51.8108 52.5445 51.1275V46.7442C54.2278 46.2108 55.4611 44.6608 55.4611 42.7942Z" fill="#00DEA3"/>
<defs>
<filter id="filter0_d_397_12672" x="0" y="0" width="104" height="104" filterUnits="userSpaceOnUse" color-interpolation-filters="sRGB">
<feFlood flood-opacity="0" result="BackgroundImageFix"/>
<feColorMatrix in="SourceAlpha" type="matrix" values="0 0 0 0 0 0 0 0 0 0 0 0 0 0 0 0 0 0 127 0" result="hardAlpha"/>
<feOffset dy="6"/>
<feGaussianBlur stdDeviation="8"/>
<feColorMatrix type="matrix" values="0 0 0 0 0 0 0 0 0 0.870588 0 0 0 0 0.639216 0 0 0 0.16 0"/>
<feBlend mode="normal" in2="BackgroundImageFix" result="effect1_dropShadow_397_12672"/>
<feBlend mode="normal" in="SourceGraphic" in2="effect1_dropShadow_397_12672" result="shape"/>
</filter>
</defs>
</svg>
