<svg width="17" height="18" viewBox="0 0 17 18" fill="none" xmlns="http://www.w3.org/2000/svg">
<path fill-rule="evenodd" clip-rule="evenodd" d="M9.2558 1.74974C9.2558 1.19746 8.80808 0.749741 8.2558 0.749741C7.70351 0.749741 7.2558 1.19746 7.2558 1.74974V8H1.00531C0.453025 8 0.00531006 8.44772 0.00531006 9C0.00531006 9.55229 0.453025 10 1.00531 10H7.2558V16.2503C7.2558 16.8025 7.70351 17.2503 8.2558 17.2503C8.80808 17.2503 9.2558 16.8025 9.2558 16.2503V10H15.5058C16.0581 10 16.5058 9.55229 16.5058 9C16.5058 8.44772 16.0581 8 15.5058 8H9.2558V1.74974Z" fill="#FAFCFE"/>
</svg>
