<svg width="24" height="24" viewBox="0 0 49 49" fill="none" xmlns="http://www.w3.org/2000/svg">
<path d="M39.875 16.9167C44.5392 16.9167 48.3333 13.1225 48.3333 8.45833C48.3333 3.79417 44.5392 0 39.875 0C35.2108 0 31.4167 3.79417 31.4167 8.45833C31.4167 13.1225 35.2108 16.9167 39.875 16.9167ZM43.5 36.25V21.2425C42.2917 21.5808 41.0833 21.75 39.875 21.75C39.4642 21.75 39.0775 21.75 38.6667 21.75V36.25C38.6667 40.2617 35.4283 43.5 31.4167 43.5H12.0833C8.07167 43.5 4.83333 40.2617 4.83333 36.25V16.9167C4.83333 12.905 8.07167 9.66667 12.0833 9.66667H26.5833C26.5833 9.28 26.5833 8.86917 26.5833 8.45833C26.5833 7.25 26.7525 6.04167 27.0908 4.83333H12.0833C5.41333 4.83333 0 10.2467 0 16.9167V36.25C0 42.92 5.41333 48.3333 12.0833 48.3333H31.4167C38.0867 48.3333 43.5 42.92 43.5 36.25Z" fill="black"/>
</svg>
