<svg width="54" height="50" viewBox="0 0 54 50" fill="none" xmlns="http://www.w3.org/2000/svg">
<path d="M48.7498 0.833344H5.24984C2.5915 0.833344 0.416504 3.00834 0.416504 5.66668V44.3333C0.416504 46.9917 2.5915 49.1667 5.24984 49.1667H48.7498C51.4082 49.1667 53.5832 46.9917 53.5832 44.3333V5.66668C53.5832 3.00834 51.4082 0.833344 48.7498 0.833344ZM48.7498 44.3333H5.24984V10.5H48.7498V44.3333ZM19.7498 15.3333C17.0915 15.3333 14.9165 17.5083 14.9165 20.1667C14.9165 22.825 12.7415 25 10.0832 25V29.8333C12.7415 29.8333 14.9165 32.0083 14.9165 34.6667C14.9165 37.325 17.0915 39.5 19.7498 39.5H24.5832V34.6667H19.7498V32.25C19.7498 29.5917 17.5748 27.4167 14.9165 27.4167C17.5748 27.4167 19.7498 25.2417 19.7498 22.5833V20.1667H24.5832V15.3333M34.2498 15.3333C36.9082 15.3333 39.0832 17.5083 39.0832 20.1667C39.0832 22.825 41.2582 25 43.9165 25V29.8333C41.2582 29.8333 39.0832 32.0083 39.0832 34.6667C39.0832 37.325 36.9082 39.5 34.2498 39.5H29.4165V34.6667H34.2498V32.25C34.2498 29.5917 36.4248 27.4167 39.0832 27.4167C36.4248 27.4167 34.2498 25.2417 34.2498 22.5833V20.1667H29.4165V15.3333H34.2498Z" fill="black"/>
</svg>
