<svg width="44" height="50" viewBox="0 0 44 50" fill="none" xmlns="http://www.w3.org/2000/svg">
<path d="M29.25 8.08334H36.5L32.875 12.9167L29.25 8.08334ZM5.08333 0.833344H38.9167C41.5992 0.833344 43.75 3.00834 43.75 5.66668V44.3333C43.75 47.0158 41.5992 49.1667 38.9167 49.1667H5.08333C2.425 49.1667 0.25 47.0158 0.25 44.3333V5.66668C0.25 3.00834 2.425 0.833344 5.08333 0.833344ZM5.08333 5.66668V15.3333H38.9167V5.66668H5.08333ZM5.08333 44.3333H38.9167V20.1667H5.08333V44.3333ZM9.91667 25H34.0833V29.8333H9.91667V25ZM9.91667 34.6667H34.0833V39.5H9.91667V34.6667Z" fill="black"/>
</svg>
