<svg width="21" height="21" viewBox="0 0 21 21" fill="none" xmlns="http://www.w3.org/2000/svg">
<path d="M8 19C8 20.1 7.1 21 6 21C4.9 21 4 20.1 4 19C4 17.9 4.9 17 6 17C7.1 17 8 17.9 8 19ZM16 17C14.9 17 14 17.9 14 19C14 20.1 14.9 21 16 21C17.1 21 18 20.1 18 19C18 17.9 17.1 17 16 17ZM6.2 13.8V13.7L7.1 12H14.5C15.2 12 15.9 11.6 16.2 11L20.1 3.99999L18.4 2.99999L14.5 9.99999H7.5L3.3 0.999994H0V2.99999H2L5.6 10.6L4.2 13C4.1 13.3 4 13.6 4 14C4 15.1 4.9 16 6 16H18V14H6.4C6.3 14 6.2 13.9 6.2 13.8ZM17 1.79999L15.6 0.399994L10.8 5.19999L8.2 2.59999L6.8 3.99999L10.8 7.99999L17 1.79999Z" fill="black"/>
</svg>
